<?xml version="1.0" encoding="UTF-8" standalone="no"?>
<!-- Created with Inkscape (http://www.inkscape.org/) -->

<svg
   xmlns:dc="http://purl.org/dc/elements/1.1/"
   xmlns:cc="http://creativecommons.org/ns#"
   xmlns:rdf="http://www.w3.org/1999/02/22-rdf-syntax-ns#"
   xmlns:svg="http://www.w3.org/2000/svg"
   xmlns="http://www.w3.org/2000/svg"
   xmlns:xlink="http://www.w3.org/1999/xlink"
   xmlns:sodipodi="http://sodipodi.sourceforge.net/DTD/sodipodi-0.dtd"
   xmlns:inkscape="http://www.inkscape.org/namespaces/inkscape"
   width="210mm"
   height="297mm"
   viewBox="0 0 210 297"
   version="1.1"
   id="svg8"
   inkscape:version="0.92.3 (2405546, 2018-03-11)"
   sodipodi:docname="testg.svg">
  <defs
     id="defs2">
    <linearGradient
       inkscape:collect="always"
       id="linearGradient838">
      <stop
         style="stop-color:#000000;stop-opacity:1;"
         offset="0"
         id="stop834" />
      <stop
         style="stop-color:#000000;stop-opacity:0;"
         offset="1"
         id="stop836" />
    </linearGradient>
    <linearGradient
       inkscape:collect="always"
       xlink:href="#linearGradient838"
       id="linearGradient840"
       x1="37.142578"
       y1="411.13876"
       x2="554.01553"
       y2="411.13876"
       gradientUnits="userSpaceOnUse"
       gradientTransform="translate(-4.6428572,-8.2142858)" />
  </defs>
  <sodipodi:namedview
     id="base"
     pagecolor="#ffffff"
     bordercolor="#666666"
     borderopacity="1.0"
     inkscape:pageopacity="0.0"
     inkscape:pageshadow="2"
     inkscape:zoom="0.7"
     inkscape:cx="188.35091"
     inkscape:cy="999.15961"
     inkscape:document-units="mm"
     inkscape:current-layer="layer1"
     showgrid="false"
     inkscape:window-width="1366"
     inkscape:window-height="745"
     inkscape:window-x="-8"
     inkscape:window-y="-8"
     inkscape:window-maximized="1"
     showguides="true"
     inkscape:guide-bbox="true">
    <sodipodi:guide
       position="9.6383926,216.95834"
       orientation="1,0"
       id="guide832"
       inkscape:locked="false" />
  </sodipodi:namedview>
  <metadata
     id="metadata5">
    <rdf:RDF>
      <cc:Work
         rdf:about="">
        <dc:format>image/svg+xml</dc:format>
        <dc:type
           rdf:resource="http://purl.org/dc/dcmitype/StillImage" />
        <dc:title />
      </cc:Work>
    </rdf:RDF>
  </metadata>
  <g
     inkscape:label="Layer 1"
     inkscape:groupmode="layer"
     id="layer1">
    <g
       aria-label="Bite.me"
       transform="matrix(0.26458333,0,0,0.26458333,23.69494,-13.361591)"
       style="font-style:normal;font-variant:normal;font-weight:normal;font-stretch:normal;font-size:133.33335876px;line-height:1.25;font-family:Bookmania-Black;-inkscape-font-specification:Bookmania-Black;letter-spacing:0px;word-spacing:0px;writing-mode:lr-tb;fill:url(#linearGradient840);fill-opacity:1;stroke:none"
       id="flowRoot815">
      <path
         d="m 185.49882,238.26212 q 0,-2.33334 0.86667,-4.66667 0.86667,-2.33333 2.6,-4.13333 1.73334,-1.86667 4.26667,-3.00001 2.6,-1.13333 6,-1.13333 3.33333,0 5.93333,1.13333 2.60001,1.13334 4.33334,3.00001 1.8,1.8 2.66667,4.13333 0.93333,2.33333 0.93333,4.66667 0,2.33333 -0.93333,4.6 -0.86667,2.26666 -2.66667,4.06667 -1.73333,1.8 -4.33334,2.93333 -2.6,1.06667 -5.93333,1.06667 -3.4,0 -6,-1.06667 -2.53333,-1.13333 -4.26667,-2.93333 -1.73333,-1.80001 -2.6,-4.06667 -0.86667,-2.26667 -0.86667,-4.6 z m -5.86666,82.40001 v -6.8 q 2.06666,-0.26667 3.33333,-0.6 1.33333,-0.33333 2.06667,-0.93333 0.73333,-0.6 1,-1.46667 0.26666,-0.86667 0.26666,-2.2 v -30.26667 q 0,-2 -0.66666,-2.86667 -0.66667,-0.86667 -2.26667,-0.86667 h -3.73333 v -6.53333 l 22.26667,-11.6 h 9.2 v 52.13334 q 0,1.33333 0.26667,2.2 0.26666,0.86667 1,1.46667 0.73333,0.6 2,0.93333 1.33333,0.33333 3.4,0.6 v 6.8 z"
         style="letter-spacing:-3px;word-spacing:-10.09000015px;fill:#000000;fill-opacity:1"
         id="path865"
         inkscape:connector-curvature="0" />
      <path
         d="m 263.61968,320.5288 q -1.53333,0.46667 -3.46667,0.8 -1.86666,0.4 -4,0.66667 -2.06666,0.33333 -4.26667,0.46666 -2.13333,0.2 -4.13333,0.2 -5.46667,0 -9.73333,-1 -4.26667,-0.93333 -7.20001,-3.13333 -2.93333,-2.26667 -4.46666,-5.93334 -1.53334,-3.73333 -1.53334,-9.26666 v -34.66668 h -6.66666 v -6.4 q 8.73333,-3.33333 14.26666,-9.2 5.60001,-5.86667 8.00001,-14.93334 h 9.2 v 20.40001 h 14 v 10.13333 h -14 v 34.66668 q 0,2.53333 0.53333,4.26666 0.53333,1.66667 1.46667,2.73334 0.93333,1 2.2,1.46666 1.26667,0.46667 2.73333,0.46667 0.73334,0 1.66667,-0.0667 1,-0.13333 2,-0.26666 1,-0.2 1.86667,-0.4 0.93333,-0.26667 1.53333,-0.6 z"
         style="letter-spacing:-3px;word-spacing:-10.09000015px;fill:#000000;fill-opacity:1"
         id="path867"
         inkscape:connector-curvature="0" />
      <path
         d="m 299.98426,265.99547 q -2.53333,0 -4.26667,0.93333 -1.73333,0.86667 -2.86666,2.8 -1.06667,1.93333 -1.6,5.06667 -0.53334,3.06666 -0.73334,7.46666 l 17.33333,-5.86666 q 0,-2.06667 -0.53333,-3.93334 -0.53333,-1.93333 -1.53333,-3.33333 -1,-1.46667 -2.46667,-2.26667 -1.46666,-0.86666 -3.33333,-0.86666 z m -9.6,26.93333 q 0.26667,5.06667 1.2,8.66667 1,3.6 2.73333,5.93333 1.8,2.26667 4.33334,3.4 2.6,1.06667 6.13333,1.06667 5.4,0 10.46666,-3.6 5.13334,-3.66667 8.86667,-10.8 l 8.53333,5.06666 q -2.33333,4.53334 -5.2,8.2 -2.86666,3.66667 -6.6,6.33334 -3.66666,2.6 -8.46666,4 -4.73334,1.46666 -10.93333,1.46666 -8.4,0 -15.13334,-2.4 -6.73333,-2.46666 -11.46666,-6.8 -4.66667,-4.4 -7.2,-10.46666 -2.46667,-6.06667 -2.46667,-13.4 0,-7.26667 2.53333,-13.33334 2.6,-6.13333 7.13334,-10.46666 4.6,-4.4 10.86666,-6.8 6.26667,-2.46667 13.73334,-2.46667 5.66666,0 10.79999,1.33333 5.13334,1.26667 9.2,4.06667 4.13334,2.8 6.93334,7.26667 2.86666,4.4 4,10.66666 z"
         style="font-style:normal;font-variant:normal;font-weight:normal;font-stretch:normal;font-size:133.33332825px;font-family:Bookmania-Black;-inkscape-font-specification:'Bookmania-Black, Normal';font-variant-ligatures:normal;font-variant-caps:normal;font-variant-numeric:normal;font-feature-settings:normal, aalt;text-align:start;letter-spacing:-3px;word-spacing:-10.09000015px;writing-mode:lr-tb;text-anchor:start;fill:#000000;fill-opacity:1"
         id="path869"
         inkscape:connector-curvature="0" />
      <path
         d="m 404.9676,320.66213 v -6.8 q 2.06666,-0.26667 3.33333,-0.6 1.33333,-0.33333 2.06667,-0.93333 0.73333,-0.6 1,-1.46667 0.26666,-0.86667 0.26666,-2.2 v -30.66667 q 0,-2.13334 -0.6,-3.6 -0.6,-1.53334 -1.66666,-2.46667 -1.06667,-0.93333 -2.46667,-1.33333 -1.4,-0.46667 -3,-0.46667 -2.73333,0 -4.93333,0.86667 -2.2,0.8 -4.40001,2.33333 v 35.33334 q 0,1.33333 0.26667,2.2 0.26667,0.86667 1,1.46667 0.73334,0.6 2,0.93333 1.33334,0.33333 3.4,0.6 v 6.8 h -38.13334 v -6.8 q 2.06667,-0.26667 3.33334,-0.6 1.33333,-0.33333 2.06666,-0.93333 0.73334,-0.6 1,-1.46667 0.26667,-0.86667 0.26667,-2.2 v -30.26667 q 0,-2 -0.66667,-2.86667 -0.66666,-0.86667 -2.26666,-0.86667 h -3.73334 v -6.53333 l 22.26667,-11.6 h 9.2 v 6.53333 q 2.00001,-1.33333 4.40001,-2.53333 2.4,-1.2 4.93333,-2.06667 2.6,-0.93333 5.2,-1.4 2.66667,-0.53333 5.2,-0.53333 2.73334,0 5.46667,0.4 2.73333,0.33333 5.2,1.33333 2.53333,1 4.66667,2.66667 2.2,1.66666 3.73333,4.26667 2.26667,-1.86667 5,-3.40001 2.8,-1.6 5.8,-2.73333 3,-1.2 6.00001,-1.86667 3.06666,-0.66666 5.86666,-0.66666 4.06667,0 8,0.86666 4.00001,0.86667 7.13334,3.26667 3.13333,2.4 5.06667,6.73334 1.93333,4.33333 1.93333,11.26666 v 30.00001 q 0,1.33333 0.26667,2.2 0.26666,0.86667 1,1.46667 0.73333,0.6 2,0.93333 1.33333,0.33333 3.4,0.6 v 6.8 h -38.13334 v -6.8 q 2.06667,-0.26667 3.33333,-0.6 1.33334,-0.33333 2.06667,-0.93333 0.73333,-0.6 1,-1.46667 0.26667,-0.86667 0.26667,-2.2 v -30.66667 q 0,-2.13334 -0.6,-3.6 -0.6,-1.53334 -1.66667,-2.46667 -1.06667,-0.93333 -2.46667,-1.33333 -1.4,-0.46667 -3,-0.46667 -2.73333,0 -5,0.86667 -2.26667,0.86666 -4.6,2.46666 0.4,2.4 0.4,5.2 v 30.00001 q 0,1.33333 0.26667,2.2 0.26666,0.86667 1,1.46667 0.73333,0.6 2,0.93333 1.33333,0.33333 3.4,0.6 v 6.8 z"
         style="letter-spacing:-3px;word-spacing:-10.09000015px;fill:#000000;fill-opacity:1"
         id="path873"
         inkscape:connector-curvature="0" />
      <path
         d="m 521.34887,265.99547 q -2.53334,0 -4.26667,0.93333 -1.73333,0.86667 -2.86667,2.8 -1.06666,1.93333 -1.6,5.06667 -0.53333,3.06666 -0.73333,7.46666 l 17.33333,-5.86666 q 0,-2.06667 -0.53333,-3.93334 -0.53333,-1.93333 -1.53333,-3.33333 -1,-1.46667 -2.46667,-2.26667 -1.46667,-0.86666 -3.33333,-0.86666 z m -9.6,26.93333 q 0.26666,5.06667 1.2,8.66667 1,3.6 2.73333,5.93333 1.8,2.26667 4.33333,3.4 2.6,1.06667 6.13334,1.06667 5.4,0 10.46666,-3.6 5.13334,-3.66667 8.86667,-10.8 l 8.53333,5.06666 q -2.33333,4.53334 -5.2,8.2 -2.86666,3.66667 -6.6,6.33334 -3.66666,2.6 -8.46666,4 -4.73334,1.46666 -10.93334,1.46666 -8.4,0 -15.13333,-2.4 -6.73333,-2.46666 -11.46666,-6.8 -4.66667,-4.4 -7.2,-10.46666 -2.46667,-6.06667 -2.46667,-13.4 0,-7.26667 2.53333,-13.33334 2.6,-6.13333 7.13334,-10.46666 4.59999,-4.4 10.86666,-6.8 6.26667,-2.46667 13.73333,-2.46667 5.66667,0 10.8,1.33333 5.13334,1.26667 9.2,4.06667 4.13334,2.8 6.93334,7.26667 2.86666,4.4 4,10.66666 z"
         style="font-style:normal;font-variant:normal;font-weight:normal;font-stretch:normal;font-size:133.33332825px;font-family:Bookmania-Black;-inkscape-font-specification:'Bookmania-Black, Normal';font-variant-ligatures:normal;font-variant-caps:normal;font-variant-numeric:normal;font-feature-settings:normal, aalt;text-align:start;letter-spacing:-3px;word-spacing:-10.09000015px;writing-mode:lr-tb;text-anchor:start;fill:#000000;fill-opacity:1"
         id="path875"
         inkscape:connector-curvature="0" />
      <path
         d="m 143.94257,251.7288 q 0,-4.66666 -1.2,-7.4 -1.2,-2.73333 -3.2,-4.13333 -2,-1.4 -4.66666,-1.8 -2.6,-0.4 -5.46667,-0.4 h -2.8 q -1.8,0 -2.93333,1.13333 -1.06667,1.06667 -1.06667,2.86667 v 24.66666 h 4.53333 q 3.66667,0 6.73334,-0.6 3.13333,-0.6 5.33333,-2.2 2.26667,-1.66666 3.46667,-4.53333 1.26666,-2.93333 1.26666,-7.6 z m 2.66667,42.53333 q 0,-4.66666 -1.2,-7.86666 -1.13333,-3.26667 -3.33333,-5.26667 -2.13334,-2 -5.26667,-2.86667 -3.13333,-0.93333 -7,-0.93333 h -7.2 v 28.66667 q 0,1.8 1.06667,2.93333 1.13333,1.06667 2.93333,1.06667 h 3.73333 q 3.66667,0 6.66667,-0.66667 3.06667,-0.73333 5.13333,-2.53333 2.13334,-1.8 3.26667,-4.8 1.2,-3.06667 1.2,-7.73334 z m 30.66667,0 q 0,7.53334 -3.06667,12.6 -3,5.06667 -8.93333,8.13334 -5.93334,3.06666 -14.73334,4.4 -8.73333,1.26666 -20.2,1.26666 H 84.47591 v -6.8 q 2.8,-0.26666 4.599999,-0.66666 1.8,-0.4 2.866667,-1.26667 1.066667,-0.86667 1.466667,-2.33333 0.4,-1.46667 0.4,-3.86667 v -62.13333 q 0,-1.53333 -0.866667,-2.6 -0.8,-1.06667 -2.133333,-1.73333 -1.266667,-0.66667 -3,-0.93334 -1.666667,-0.33333 -3.333333,-0.33333 h -6.8 q -7.066666,0 -12.4,1.86667 -5.333333,1.8 -8.999999,4.93333 -3.666667,3.06667 -5.6,7.2 -1.933333,4.13333 -2.2,8.8 0,4.06666 1,7.06666 1.066667,2.93334 2.666667,4.86667 1.599999,1.93333 3.533333,2.86667 2,0.93333 3.866666,0.93333 2.333334,0 3.266667,-1.13333 1,-1.2 1,-3.13334 0,-1.4 -0.4,-2.4 -0.4,-1.06666 -0.866667,-2.06666 -0.466666,-1.06667 -0.866666,-2.26667 -0.4,-1.26667 -0.4,-3.13333 0,-2.8 0.999999,-5 1,-2.2 2.666667,-3.73333 1.666667,-1.53334 3.8,-2.33334 2.2,-0.8 4.533333,-0.8 3.6,0 6.2,1.4 2.6,1.4 4.266666,3.6 1.666667,2.2 2.466667,5 0.8,2.73333 0.8,5.46667 0,4.66666 -1.8,8.66666 -1.8,4 -5.133333,6.93334 -3.266667,2.93333 -7.866667,4.6 -4.599999,1.66666 -10.133332,1.66666 -5.2,0 -9.733333,-1.66666 -4.533334,-1.73334 -7.933333,-5.13334 -3.4,-3.4 -5.333334,-8.46666 -1.933333,-5.06667 -1.933333,-11.8 0,-8.4 3.266667,-14.66667 3.333333,-6.26666 8.866666,-10.46666 5.6,-4.2 12.933333,-6.26667 7.333333,-2.06667 15.466666,-2.06667 h 50 q 11.46666,0 20.2,1 8.8,0.93334 14.73333,3.66667 5.93333,2.66667 8.93333,7.46667 3.06667,4.73333 3.06667,12.26666 0,8.33333 -4.73333,13.13333 -4.66667,4.8 -13.4,7.13334 5,1.26666 8.86666,3.2 3.86667,1.93333 6.53334,4.66666 2.66666,2.66667 4,6.26667 1.4,3.6 1.4,8.13333 z"
         style="font-style:normal;font-variant:normal;font-weight:normal;font-stretch:normal;font-size:133.33332825px;font-family:Bookmania-Black;-inkscape-font-specification:'Bookmania-Black, Normal';font-variant-ligatures:no-contextual;font-variant-position:normal;font-variant-caps:normal;font-variant-numeric:lining-nums tabular-nums diagonal-fractions ordinal;font-feature-settings:normal, aalt;text-align:start;letter-spacing:-3px;word-spacing:-10.09000015px;writing-mode:lr-tb;text-anchor:start;fill:#000000;fill-opacity:1"
         id="path863"
         inkscape:connector-curvature="0" />
    </g>
    <path
       inkscape:connector-curvature="0"
       d="m 112.63488,69.541243 q 0,-0.448973 0.15714,-0.886722 0.15714,-0.437748 0.47142,-0.785702 0.31428,-0.347954 0.7857,-0.561216 0.47143,-0.213262 1.09998,-0.213262 0.61735,0 1.08877,0.213262 0.48264,0.213262 0.79692,0.561216 0.32551,0.347954 0.48265,0.785702 0.16836,0.437749 0.16836,0.886722 0,0.448971 -0.16836,0.88672 -0.15714,0.426528 -0.48265,0.774477 -0.31428,0.336728 -0.79692,0.549991 -0.47142,0.213264 -1.08877,0.213264 -0.62855,0 -1.09998,-0.213264 -0.47142,-0.213263 -0.7857,-0.549991 -0.31428,-0.347949 -0.47142,-0.774477 -0.15714,-0.437749 -0.15714,-0.88672 z"
       style="font-style:normal;font-variant:normal;font-weight:normal;font-stretch:normal;font-size:120.00003052px;line-height:1.25;font-family:Bookmania-Black;-inkscape-font-specification:Bookmania-Black;letter-spacing:0px;word-spacing:0px;writing-mode:lr-tb;fill:#000000;fill-opacity:1;stroke:none;stroke-width:0.18707198"
       id="path871-2" />
  </g>
</svg>
